<svg xmlns="http://www.w3.org/2000/svg" viewBox="0 0 500 400" fill="none" stroke="currentColor" stroke-width="1.2">
  <path d="M 0 350 Q 125 330 250 350 T 500 350 M 0 370 Q 125 350 250 370 T 500 370" />
  <path d="M 120 300 L 380 300 L 410 330 L 90 330 Z" stroke-width="1.5" />
  <rect x="140" y="270" width="30" height="30" />
  <rect x="175" y="270" width="30" height="30" />
  <rect x="210" y="260" width="30" height="40" />
  <rect x="245" y="250" width="30" height="50" />
  <rect x="280" y="270" width="35" height="30" />
  <rect x="320" y="260" width="30" height="40" />
  <path d="M 360 300 L 360 250 L 375 250 L 375 300" />
  <path d="M 360 270 L 375 270" />
  <path d="M 370 250 L 370 230" />
  <circle cx="250" cy="180" r="120" stroke-dasharray="3,3" />
  <path d="M 130 180 Q 250 120 370 180" />
  <path d="M 130 180 Q 250 240 370 180" />
  <path d="M 250 60 Q 210 180 250 300" />
  <path d="M 250 60 Q 290 180 250 300" />
  <path d="M 250 180 Q 350 120 420 160" stroke-width="1.5" stroke-dasharray="5,5" />
  <path d="M 250 180 Q 150 100 80 140" stroke-width="1.5" stroke-dasharray="5,5" />
  <path d="M 250 180 Q 300 80 340 50" stroke-width="1.5" stroke-dasharray="5,5" />
  <g transform="translate(80, 80) scale(0.6)">
    <circle cx="50" cy="50" r="40" stroke-dasharray="2,2" />
    <path d="M 50 10 L 50 90 M 10 50 L 90 50" />
    <path d="M 50 10 L 55 45 L 90 50 L 55 55 L 50 90 L 45 55 L 10 50 L 45 45 Z" fill="none" stroke-width="1" />
  </g>
</svg>
